<?xml version="1.0" standalone="no"?>
<!DOCTYPE svg PUBLIC "-//W3C//DTD SVG 20010904//EN"
 "http://www.w3.org/TR/2001/REC-SVG-20010904/DTD/svg10.dtd">
<svg version="1.0" xmlns="http://www.w3.org/2000/svg"
 width="512.000000pt" height="512.000000pt" viewBox="0 0 512.000000 512.000000"
 preserveAspectRatio="xMidYMid meet">
<metadata>
Created by potrace 1.14, written by Peter Selinger 2001-2017
</metadata>
<g transform="translate(0.000000,512.000000) scale(0.100000,-0.100000)"
fill="#000000" stroke="none">
<path d="M2369 5116 c-2 -2 -34 -6 -70 -10 -399 -37 -817 -188 -1160 -417
-633 -423 -1044 -1103 -1126 -1864 -10 -93 -9 -463 1 -545 5 -36 10 -72 11
-80 15 -126 66 -331 120 -489 135 -392 389 -772 712 -1063 288 -260 692 -474
1073 -569 116 -29 130 -32 210 -44 25 -4 56 -9 70 -11 114 -20 466 -26 614
-11 116 12 327 52 441 86 595 172 1102 548 1441 1066 68 103 66 101 144 256
103 204 183 433 215 618 3 19 8 37 10 40 3 6 8 33 21 123 26 184 26 521 0 718
-5 31 -17 102 -20 115 -2 6 -6 28 -10 50 -13 70 -57 227 -88 315 -189 534
-520 962 -990 1284 -53 36 -100 66 -104 66 -4 0 -15 6 -23 14 -20 18 -257 137
-331 166 -148 59 -397 133 -494 146 -15 2 -35 6 -45 8 -9 3 -43 8 -76 12 -33
3 -69 8 -80 11 -23 5 -461 13 -466 9z"/>
</g>
</svg>
